<svg width="191" height="32" viewBox="0 0 191 32" fill="none" xmlns="http://www.w3.org/2000/svg">
<path d="M24.5 25.28V31H0.652V0.199998H23.928V5.92H7.736V12.608H22.036V18.152H7.736V25.28H24.5ZM41.2685 15.864H53.7205V21.364H41.2685V15.864Z" fill="#101112"/>
<path d="M78.4461 6.008H68.5901V0.199998H95.4301V6.008H85.5741V31H78.4461V6.008ZM119.563 19.252C119.563 19.34 119.519 19.956 119.431 21.1H101.523C101.846 22.5667 102.608 23.7253 103.811 24.576C105.014 25.4267 106.51 25.852 108.299 25.852C109.531 25.852 110.616 25.676 111.555 25.324C112.523 24.9427 113.418 24.356 114.239 23.564L117.891 27.524C115.662 30.076 112.406 31.352 108.123 31.352C105.454 31.352 103.092 30.8387 101.039 29.812C98.9857 28.756 97.4017 27.304 96.287 25.456C95.1724 23.608 94.615 21.5107 94.615 19.164C94.615 16.8467 95.1577 14.764 96.243 12.916C97.3577 11.0387 98.8684 9.58667 100.775 8.56C102.711 7.504 104.867 6.976 107.243 6.976C109.56 6.976 111.658 7.47467 113.535 8.472C115.412 9.46933 116.879 10.9067 117.935 12.784C119.02 14.632 119.563 16.788 119.563 19.252ZM107.287 12.168C105.732 12.168 104.427 12.608 103.371 13.488C102.315 14.368 101.67 15.5707 101.435 17.096H113.095C112.86 15.6 112.215 14.412 111.159 13.532C110.103 12.6227 108.812 12.168 107.287 12.168ZM133.036 6.976C136.703 6.976 139.519 7.856 141.484 9.616C143.45 11.3467 144.432 13.972 144.432 17.492V31H138.008V28.052C136.718 30.252 134.312 31.352 130.792 31.352C128.974 31.352 127.39 31.044 126.04 30.428C124.72 29.812 123.708 28.9613 123.004 27.876C122.3 26.7907 121.948 25.5587 121.948 24.18C121.948 21.98 122.77 20.2493 124.412 18.988C126.084 17.7267 128.651 17.096 132.112 17.096H137.568C137.568 15.6 137.114 14.456 136.204 13.664C135.295 12.8427 133.931 12.432 132.112 12.432C130.851 12.432 129.604 12.6373 128.372 13.048C127.17 13.4293 126.143 13.9573 125.292 14.632L122.828 9.836C124.119 8.92667 125.659 8.22267 127.448 7.724C129.267 7.22533 131.13 6.976 133.036 6.976ZM132.508 26.732C133.682 26.732 134.723 26.468 135.632 25.94C136.542 25.3827 137.187 24.576 137.568 23.52V21.1H132.86C130.044 21.1 128.636 22.024 128.636 23.872C128.636 24.752 128.974 25.456 129.648 25.984C130.352 26.4827 131.306 26.732 132.508 26.732ZM180.961 6.976C183.923 6.976 186.27 7.856 188.001 9.616C189.761 11.3467 190.641 13.9573 190.641 17.448V31H183.777V18.504C183.777 16.6267 183.381 15.2333 182.589 14.324C181.826 13.3853 180.726 12.916 179.289 12.916C177.675 12.916 176.399 13.444 175.461 14.5C174.522 15.5267 174.053 17.0667 174.053 19.12V31H167.189V18.504C167.189 14.7787 165.693 12.916 162.701 12.916C161.117 12.916 159.855 13.444 158.917 14.5C157.978 15.5267 157.509 17.0667 157.509 19.12V31H150.645V7.328H157.201V10.056C158.081 9.05867 159.151 8.296 160.413 7.768C161.703 7.24 163.111 6.976 164.637 6.976C166.309 6.976 167.819 7.31333 169.169 7.988C170.518 8.63333 171.603 9.58666 172.425 10.848C173.393 9.616 174.61 8.66267 176.077 7.988C177.573 7.31333 179.201 6.976 180.961 6.976Z" fill="#0097FC"/>
</svg>
